<svg xmlns="http://www.w3.org/2000/svg" data-name="Layer 1" viewBox="0 0 259.8 241"><path fill="#e17726" stroke="#e17726" stroke-linecap="round" stroke-linejoin="round" d="M246.5.5l-101.1 75 18.8-44.2L246.5.5z"/><path fill="#e27625" stroke="#e27625" stroke-linecap="round" stroke-linejoin="round" d="M13.3.5l100.2 75.7-17.9-44.9L13.3.5zm196.8 173.9l-26.9 41.2 57.6 15.9 16.5-56.2-47.2-.9zm-207.5.9L19 231.5l57.5-15.9-26.8-41.2-47.1.9z"/><path fill="#e27625" stroke="#e27625" stroke-linecap="round" stroke-linejoin="round" d="M73.4 104.8l-16 24.2 57 2.6-1.9-61.5-39.1 34.7zm113 0l-39.7-35.4-1.3 62.2 57-2.6-16-24.2zM76.5 215.6l34.5-16.7-29.7-23.2-4.8 39.9zm72.3-16.7l34.4 16.7-4.7-39.9-29.7 23.2z"/><path fill="#d5bfb2" stroke="#d5bfb2" stroke-linecap="round" stroke-linejoin="round" d="M183.2 215.6l-34.4-16.7 2.8 22.4-.3 9.5 31.9-15.2zm-106.7 0l32 15.2-.2-9.5 2.7-22.4-34.5 16.7z"/><path fill="#233447" stroke="#233447" stroke-linecap="round" stroke-linejoin="round" d="M109.1 160.9l-28.6-8.4 20.2-9.3 8.4 17.7zm41.6 0l8.4-17.7 20.3 9.3-28.7 8.4z"/><path fill="#cc6228" stroke="#cc6228" stroke-linecap="round" stroke-linejoin="round" d="M76.5 215.6l5-41.2-31.8.9 26.8 40.3zm101.8-41.2l4.9 41.2 26.9-40.3-31.8-.9zm24.1-45.4l-57 2.6 5.3 29.3 8.4-17.7 20.3 9.3 23-23.5zM80.5 152.5l20.2-9.3 8.4 17.7 5.3-29.3-57-2.6 23.1 23.5z"/><path fill="#e27525" stroke="#e27525" stroke-linecap="round" stroke-linejoin="round" d="M57.4 129l23.9 46.7-.8-23.2L57.4 129zm122 23.5l-.9 23.2 23.9-46.7-23 23.5zm-65-20.9l-5.3 29.3 6.7 34.6 1.5-45.6-2.9-18.3zm31 0l-2.8 18.2 1.4 45.7 6.7-34.6-5.3-29.3z"/><path fill="#f5841f" stroke="#f5841f" stroke-linecap="round" stroke-linejoin="round" d="M150.7 160.9l-6.7 34.6 4.8 3.4 29.7-23.2.9-23.2-28.7 8.4zm-70.2-8.4l.8 23.2 29.7 23.2 4.8-3.4-6.7-34.6-28.6-8.4z"/><path fill="#c0ac9d" stroke="#c0ac9d" stroke-linecap="round" stroke-linejoin="round" d="M151.3 230.8l.3-9.5-2.6-2.2h-38.2l-2.5 2.2.2 9.5-32-15.2 11.2 9.2 22.7 15.7h38.9l22.8-15.7 11.1-9.2-31.9 15.2z"/><path fill="#161616" stroke="#161616" stroke-linecap="round" stroke-linejoin="round" d="M148.8 198.9l-4.8-3.4h-28.2l-4.8 3.4-2.7 22.4 2.5-2.2H149l2.6 2.2-2.8-22.4z"/><path fill="#763e1a" stroke="#763e1a" stroke-linecap="round" stroke-linejoin="round" d="M250.8 80.4l8.5-41.4L246.5.5 148.8 73l37.6 31.8 53.1 15.5 11.7-13.7-5.1-3.7 8.1-7.4-6.2-4.8 8.1-6.2-5.3-4.1zM.5 39l8.6 41.4-5.5 4.1 8.2 6.2-6.2 4.8 8.1 7.4-5.1 3.7 11.7 13.7 53.1-15.5L111 73 13.3.5.5 39z"/><path fill="#f5841f" stroke="#f5841f" stroke-linecap="round" stroke-linejoin="round" d="M239.5 120.3l-53.1-15.5 16 24.2-23.9 46.7 31.6-.4h47.2l-17.8-55zM73.4 104.8l-53.1 15.5-17.7 55h47.1l31.6.4L57.4 129l16-24.2zm72 26.8l3.4-58.6 15.4-41.7H95.6L111 73l3.4 58.6 1.3 18.4.1 45.5H144l.1-45.5 1.3-18.4z"/></svg>